<svg width="15" height="15" viewBox="0 0 15 15" fill="none" xmlns="http://www.w3.org/2000/svg">
<g clip-path="url(#clip0_82_1025)">
<path d="M7.575 7.9875C7.52519 7.98125 7.4748 7.98125 7.425 7.9875C6.89497 7.96966 6.39262 7.74649 6.02409 7.36513C5.65556 6.98377 5.4497 6.47408 5.45 5.94375C5.45 4.8125 6.3625 3.89375 7.5 3.89375C8.03715 3.89282 8.55315 4.10301 8.93676 4.479C9.32037 4.855 9.54087 5.36668 9.55071 5.90374C9.56055 6.4408 9.35894 6.96022 8.98936 7.35001C8.61978 7.73981 8.11182 7.96876 7.575 7.9875ZM11.7125 12.1125C10.5639 13.1682 9.06002 13.7528 7.5 13.75C5.875 13.75 4.4 13.1313 3.2875 12.1125C3.35 11.525 3.725 10.95 4.39375 10.5C6.10625 9.3625 8.90625 9.3625 10.6062 10.5C11.275 10.95 11.65 11.525 11.7125 12.1125Z" stroke="black" stroke-width="1.5" stroke-linecap="round" stroke-linejoin="round"/>
<path d="M7.5 13.75C10.9519 13.75 13.75 10.9519 13.75 7.5C13.75 4.04813 10.9519 1.25 7.5 1.25C4.04813 1.25 1.25 4.04813 1.25 7.5C1.25 10.9519 4.04813 13.75 7.5 13.75Z" stroke="black" stroke-width="1.5" stroke-linecap="round" stroke-linejoin="round"/>
</g>
<defs>
<clipPath id="clip0_82_1025">
<rect width="15" height="15" fill="white"/>
</clipPath>
</defs>
</svg>
