<svg width="121" height="160" viewBox="0 0 121 160" fill="none" xmlns="http://www.w3.org/2000/svg">
<path d="M82.439 66.8373C96.7919 80.4384 100.363 101.921 91.1662 119.443L107.627 102.982C115.522 93.5024 120.987 81.875 121 70.2477C121 70.2298 121 70.2074 121 70.1805C121 70.1537 121 70.1268 121 70.1C121 61.6547 118.1 53.196 113.481 45.5697C109.453 38.8967 105.331 35.0836 99.9203 29.6727L70.2477 0L56.5794 13.6548C49.074 21.1737 49.074 33.4724 56.5794 40.9778L82.439 66.8373Z" fill="url(#paint0_linear_82_996)"/>
<path d="M83.607 65.6424C96.3757 77.7665 100.9 95.9864 95.8655 112.394L106.392 101.867C108.513 99.3161 110.487 96.5503 112.232 93.6367C114.354 81.244 110.299 68.2605 100.833 59.2782L79.1897 37.648C73.4432 31.9015 73.4432 22.4894 79.1897 16.7429C83.1908 12.9432 75.4169 7.51886 70.2476 2.34964L57.761 14.8363C50.9 21.6973 50.9 32.9353 57.761 39.8097L83.607 65.6424Z" fill="url(#paint1_linear_82_996)"/>
<path d="M91.1662 119.443C100.363 101.921 96.7919 80.4384 82.439 66.8373C84.6812 69.0795 85.1914 70.7713 82.3853 73.5774L71.0533 84.9095C63.5344 92.4283 63.5344 104.714 71.0533 112.232L84.7081 125.901L91.1662 119.443Z" fill="url(#paint2_linear_82_996)"/>
<path d="M89.7833 118.422L84.7081 123.497L72.2482 111.038C65.4007 104.19 65.4007 92.9654 72.2482 86.1044L83.5937 74.7724C84.359 73.9937 84.9497 73.2552 85.3525 72.5168C87.2323 74.8933 88.83 77.4443 90.1458 80.1162L85.8628 84.3992C79.0018 91.2602 79.0018 102.471 85.8628 109.332L91.4213 114.891C90.929 116.081 90.383 117.258 89.7833 118.422Z" fill="url(#paint3_linear_82_996)"/>
<path d="M91.1662 119.443C100.363 101.921 96.7919 80.4384 82.439 66.8373C84.6812 69.0795 85.1914 70.7713 82.3853 73.5774C91.5824 86.9637 94.7645 103.599 91.1662 119.443Z" fill="url(#paint4_linear_82_996)"/>
<path d="M38.561 93.0057C24.208 79.4046 20.6366 57.9221 29.8338 40.4139L13.3728 56.8614C5.47803 66.3406 0.0134265 77.9679 0 89.5953C0 89.6222 0 89.649 0 89.6759C0 89.6938 0 89.7162 0 89.743C0 98.2018 2.90013 106.647 7.51886 114.273C11.5468 120.946 15.6688 124.759 21.0797 130.17L50.7523 159.856L64.4205 146.188C71.926 138.683 71.926 126.384 64.4205 118.865L38.561 93.0057Z" fill="url(#paint5_linear_82_996)"/>
<path d="M37.3929 94.2006C24.6243 82.0765 20.0995 63.8566 25.1345 47.4628L14.6081 57.9892C12.4867 60.5403 10.513 63.2927 8.76752 66.2197C6.64612 78.599 10.7009 91.5825 20.1667 100.565L41.8102 122.208C47.5568 127.955 47.5568 137.367 41.8102 143.114C37.8091 146.913 45.5831 152.338 50.7523 157.507L63.239 145.02C70.1 138.146 70.1 126.908 63.239 120.047L37.3929 94.2006Z" fill="url(#paint6_linear_82_996)"/>
<path d="M29.8338 40.4139C20.6366 57.9221 24.2081 79.4046 38.561 93.0056C36.3188 90.7634 35.8086 89.0717 38.6147 86.279L49.9468 74.9335C57.4656 67.4281 57.4656 55.1294 49.9468 47.6105L36.2919 33.9557L29.8338 40.4139Z" fill="url(#paint7_linear_82_996)"/>
<path d="M31.2167 41.4209L36.2919 36.3456L48.7518 48.8189C55.5993 55.6664 55.5993 66.891 48.7518 73.7386L37.4063 85.084C36.641 85.8493 36.0503 86.6012 35.6475 87.3262C33.7678 84.9497 32.17 82.3987 30.8542 79.7268L35.1373 75.4437C41.9982 68.5962 41.9982 57.3716 35.1373 50.5241L29.5787 44.9655C30.071 43.7661 30.617 42.5845 31.2167 41.4209Z" fill="url(#paint8_linear_82_996)"/>
<path d="M29.8338 40.4139C20.6366 57.9221 24.2081 79.4046 38.561 93.0057C36.3188 90.7634 35.8086 89.0717 38.6147 86.279C29.4176 72.8793 26.2355 56.2572 29.8338 40.4139Z" fill="url(#paint9_linear_82_996)"/>
<defs>
<linearGradient id="paint0_linear_82_996" x1="-12.151" y1="117.657" x2="-10.1505" y2="-32.5325" gradientUnits="userSpaceOnUse">
<stop stop-color="#EC1C24"/>
<stop offset="1" stop-color="#FFF100"/>
</linearGradient>
<linearGradient id="paint1_linear_82_996" x1="-9.29121" y1="117.67" x2="-7.27722" y2="-32.5057" gradientUnits="userSpaceOnUse">
<stop stop-color="#EC1C24"/>
<stop offset="1" stop-color="#FFF100"/>
</linearGradient>
<linearGradient id="paint2_linear_82_996" x1="141.489" y1="107.372" x2="73.5775" y2="175.284" gradientUnits="userSpaceOnUse">
<stop stop-color="#4A1877"/>
<stop offset="1" stop-color="#C735F7"/>
</linearGradient>
<linearGradient id="paint3_linear_82_996" x1="148.726" y1="101.746" x2="72.9196" y2="177.553" gradientUnits="userSpaceOnUse">
<stop stop-color="#4A1877"/>
<stop offset="1" stop-color="#C735F7"/>
</linearGradient>
<linearGradient id="paint4_linear_82_996" x1="140.724" y1="137.528" x2="87.9304" y2="190.321" gradientUnits="userSpaceOnUse">
<stop stop-color="#4A1877"/>
<stop offset="1" stop-color="#C735F7"/>
</linearGradient>
<linearGradient id="paint5_linear_82_996" x1="133.151" y1="42.1862" x2="131.15" y2="192.376" gradientUnits="userSpaceOnUse">
<stop stop-color="#EC1C24"/>
<stop offset="1" stop-color="#FFF100"/>
</linearGradient>
<linearGradient id="paint6_linear_82_996" x1="130.291" y1="42.1728" x2="128.277" y2="192.349" gradientUnits="userSpaceOnUse">
<stop stop-color="#EC1C24"/>
<stop offset="1" stop-color="#FFF100"/>
</linearGradient>
<linearGradient id="paint7_linear_82_996" x1="-20.4889" y1="52.4709" x2="47.4225" y2="-15.4406" gradientUnits="userSpaceOnUse">
<stop stop-color="#4A1877"/>
<stop offset="1" stop-color="#C735F7"/>
</linearGradient>
<linearGradient id="paint8_linear_82_996" x1="-27.7258" y1="58.0966" x2="48.0804" y2="-17.7096" gradientUnits="userSpaceOnUse">
<stop stop-color="#4A1877"/>
<stop offset="1" stop-color="#C735F7"/>
</linearGradient>
<linearGradient id="paint9_linear_82_996" x1="-19.7236" y1="22.3284" x2="33.0696" y2="-30.4782" gradientUnits="userSpaceOnUse">
<stop stop-color="#4A1877"/>
<stop offset="1" stop-color="#C735F7"/>
</linearGradient>
</defs>
</svg>
